<?xml version="1.0" encoding="iso-8859-1"?>
<!-- Generator: Adobe Illustrator 19.0.0, SVG Export Plug-In . SVG Version: 6.00 Build 0)  -->
<svg version="1.1" id="Layer_1" xmlns="http://www.w3.org/2000/svg" xmlns:xlink="http://www.w3.org/1999/xlink" x="0px" y="0px"
	 viewBox="0 0 512 512" style="enable-background:new 0 0 512 512;" xml:space="preserve">
<g>
	<path style="fill:#E4EAF8;" d="M486.512,133.774c-7.529-2.086-14.755-1.668-21.158,0.537c-4.365,1.504-8.927-1.183-10.774-5.415
		c-8.164-18.708-26.794-31.794-48.512-31.794c-23.164,0-42.804,14.894-49.997,35.609l0,0c-0.995-0.084-1.952-0.299-2.968-0.299
		c-20.646,0-37.153,17.718-35.145,38.778c1.751,18.359,18.22,31.842,36.662,31.842H476.69c22.122,0,39.49-20.341,34.425-43.339
		C508.394,147.342,498.703,137.152,486.512,133.774z"/>
	<path style="fill:#E4EAF8;" d="M261.226,229.517c17.999-10.801,30.084-30.446,30.084-52.966c0-34.127-27.666-61.793-61.793-61.793
		c-3.674,0-7.254,0.381-10.752,0.995l0.004-0.026c-3.633,0.654-7.423-0.905-9.429-4.002c-12.58-19.417-34.413-32.277-59.272-32.277
		c-29.304,0-54.375,17.874-65.05,43.299c-1.878,4.474-6.91,6.962-11.373,5.057c-9.963-4.25-21.484-5.545-33.502-2.699
		c-19.417,4.598-34.894,20.533-38.958,40.07c-7.119,34.222,18.813,64.342,51.78,64.342H261.226z"/>
</g>
<g>
	<path style="fill:#D5DCED;" d="M361.931,176.552c0-19.501,15.808-35.31,35.31-35.31c1.017,0,1.974,0.215,2.968,0.299
		c5.827-16.782,19.885-29.59,37.309-33.907c-8.802-6.55-19.628-10.53-31.449-10.53c-23.164,0-42.804,14.894-49.997,35.609
		c-0.995-0.084-1.952-0.299-2.968-0.299c-19.501,0-35.31,15.809-35.31,35.31s15.809,35.31,35.31,35.31c5.559,0,12.82,0,21.005,0
		C366.704,196.562,361.931,187.158,361.931,176.552z"/>
	<path style="fill:#D5DCED;" d="M54.151,182.829c4.064-19.535,19.541-35.471,38.958-40.07c12.019-2.846,23.539-1.551,33.502,2.699
		c4.463,1.905,9.495-0.583,11.373-5.057c9.944-23.684,32.437-40.616,59.149-42.85c-12.491-11.218-28.949-18.103-47.064-18.103
		c-29.304,0-54.375,17.874-65.05,43.299c-1.878,4.474-6.91,6.962-11.373,5.057c-9.963-4.25-21.484-5.545-33.502-2.699
		c-19.417,4.598-34.894,20.533-38.958,40.07c-7.119,34.222,18.813,64.342,51.78,64.342h13.586
		C55.838,217.577,50.413,200.793,54.151,182.829z"/>
	<path style="fill:#D5DCED;" d="M433.354,256.541c-10.861-1.22-21.304-0.326-31.114,2.177c-4.472,1.141-9.119-1.426-10.374-5.868
		C375.116,193.547,320.663,150.069,256,150.069c-51.351,0-96.302,27.405-121.025,68.387c-1.966,3.258-5.678,4.882-9.415,4.159
		c-17.517-3.39-36.458-2.71-56.53,5.338c-39.957,16.022-68.346,53.935-69.017,96.979c-0.922,59.277,46.852,107.619,105.918,107.619
		h314.677c38.81,0,74.664-23.833,86.879-60.672C525.684,317.001,486.415,262.5,433.354,256.541z"/>
</g>
<path style="fill:#C7CFE2;" d="M88.289,342.588c0.67-43.044,29.06-80.957,69.017-96.98c20.071-8.049,39.011-8.728,56.53-5.338
	c3.736,0.723,7.448-0.9,9.415-4.159c21.782-36.107,59.275-61.649,103.004-67.22c-20.697-11.918-44.648-18.822-70.254-18.822
	c-51.352,0-96.302,27.404-121.025,68.387c-1.965,3.258-5.678,4.882-9.415,4.159c-17.517-3.39-36.459-2.711-56.53,5.338
	c-39.957,16.022-68.346,53.934-69.017,96.979c-0.922,59.277,46.852,107.619,105.918,107.619h29.81
	C106.72,413.291,87.704,380.161,88.289,342.588z"/>
<g>
	<path style="fill:#707487;" d="M291.31,379.586c-29.207,0-52.966-23.758-52.966-52.966v-35.31
		c0-29.207,23.758-52.966,52.966-52.966s52.966,23.758,52.966,52.966v35.31C344.276,355.828,320.517,379.586,291.31,379.586z
		 M291.31,256c-19.474,0-35.31,15.84-35.31,35.31v35.31c0,19.47,15.837,35.31,35.31,35.31s35.31-15.84,35.31-35.31v-35.31
		C326.621,271.84,310.784,256,291.31,256z"/>
	<path style="fill:#707487;" d="M185.379,379.586c-29.207,0-52.966-23.758-52.966-52.966v-35.31
		c0-29.207,23.758-52.966,52.966-52.966c16.793,0,32.233,7.706,42.336,21.146c2.931,3.896,2.155,9.431-1.741,12.362
		c-3.914,2.931-9.431,2.142-12.362-1.75c-6.75-8.961-17.035-14.103-28.233-14.103c-19.474,0-35.31,15.84-35.31,35.31v35.31
		c0,19.47,15.837,35.31,35.31,35.31c11.207,0,21.508-5.151,28.25-14.13c2.922-3.896,8.474-4.681,12.362-1.759
		c3.896,2.931,4.681,8.466,1.759,12.362C217.637,371.866,202.198,379.586,185.379,379.586z"/>
	<path style="fill:#707487;" d="M397.241,397.241h-35.31c-4.879,0-8.828-3.953-8.828-8.828V384c0-5.535,2.646-10.815,7.078-14.13
		l24.707-18.53c2.207-1.66,3.526-4.301,3.526-7.064c0-4.866-3.957-8.828-8.828-8.828c-4.871,0-8.828,3.961-8.828,8.828
		c0,4.875-3.948,8.828-8.828,8.828c-4.879,0-8.828-3.953-8.828-8.828c0-14.603,11.88-26.483,26.483-26.483
		c14.603,0,26.483,11.88,26.483,26.483c0,8.285-3.957,16.203-10.586,21.181l-18.836,14.13h20.595c4.879,0,8.828,3.953,8.828,8.828
		S402.121,397.241,397.241,397.241z"/>
</g>
<g>
</g>
<g>
</g>
<g>
</g>
<g>
</g>
<g>
</g>
<g>
</g>
<g>
</g>
<g>
</g>
<g>
</g>
<g>
</g>
<g>
</g>
<g>
</g>
<g>
</g>
<g>
</g>
<g>
</g>
</svg>
