<?xml version="1.0" encoding="iso-8859-1"?>
<!-- Generator: Adobe Illustrator 19.0.0, SVG Export Plug-In . SVG Version: 6.00 Build 0)  -->
<svg version="1.1" id="Layer_1" xmlns="http://www.w3.org/2000/svg" xmlns:xlink="http://www.w3.org/1999/xlink" x="0px" y="0px"
	 viewBox="0 0 298.733 298.733" style="enable-background:new 0 0 298.733 298.733;" xml:space="preserve">
<g>
	<g>
		<g>
			<path d="M148.5,79.688c-38.421,0-69.679,31.258-69.679,69.679c0,38.421,31.258,69.679,69.679,69.679s69.679-31.258,69.679-69.679
				C218.179,110.946,186.922,79.688,148.5,79.688z M181.116,157.274h-24.709v24.709c0,4.367-3.54,7.907-7.907,7.907
				s-7.907-3.54-7.907-7.907v-24.709h-24.709c-4.367,0-7.907-3.54-7.907-7.907s3.54-7.907,7.907-7.907h24.709v-24.709
				c0-4.367,3.54-7.907,7.907-7.907s7.907,3.54,7.907,7.907v24.709h24.709c4.367,0,7.907,3.54,7.907,7.907
				C189.023,153.733,185.483,157.274,181.116,157.274z"/>
			<path d="M73.233,253.817l-0.748-0.544c-4.406-3.225-10.59-2.266-13.813,2.138c-3.224,4.405-2.266,10.589,2.138,13.813l0.852,0.62
				c1.749,1.263,3.772,1.872,5.777,1.872c3.066,0,6.089-1.423,8.022-4.099C78.656,263.19,77.658,257.012,73.233,253.817z"/>
			<path d="M104.646,27.717c1.036,0,2.09-0.164,3.126-0.51l0.878-0.291c5.19-1.692,8.025-7.272,6.332-12.461
				c-1.692-5.189-7.272-8.024-12.461-6.332l-1,0.329c-5.178,1.727-7.977,7.324-6.252,12.502
				C96.651,25.097,100.507,27.717,104.646,27.717z"/>
			<path d="M44.138,224.756c-3.192-4.427-9.369-5.429-13.797-2.236c-4.427,3.192-5.429,9.37-2.236,13.797l0.632,0.868
				c1.937,2.637,4.935,4.034,7.973,4.034c2.032,0,4.081-0.624,5.843-1.919c4.399-3.231,5.346-9.417,2.115-13.817L44.138,224.756z"/>
			<path d="M270.552,108.312l0.28,0.843c1.36,4.172,5.232,6.822,9.394,6.822c1.015,0,2.049-0.158,3.066-0.49
				c5.19-1.692,8.025-7.272,6.332-12.461c-0.113-0.346-0.227-0.69-0.344-1.034c-1.745-5.171-7.352-7.954-12.524-6.204
				C271.584,97.533,268.806,103.141,270.552,108.312z"/>
			<path d="M109.113,271.965l-0.901-0.291c-5.191-1.694-10.769,1.143-12.461,6.332c-1.693,5.189,1.142,10.769,6.332,12.461
				l0.986,0.32c1.005,0.322,2.023,0.476,3.024,0.476c4.179,0,8.062-2.673,9.409-6.864C117.17,279.2,114.31,273.634,109.113,271.965z
				"/>
			<path d="M13.379,116.739c0.997,0.318,2.006,0.468,2.999,0.468c4.189,0,8.079-2.685,9.415-6.891l0.285-0.885
				c1.688-5.191-1.151-10.767-6.343-12.455c-5.193-1.69-10.767,1.151-12.455,6.343l-0.323,1.005
				C5.303,109.527,8.178,115.084,13.379,116.739z"/>
			<path d="M26.228,189.759l-0.284-0.871c-1.674-5.196-7.241-8.051-12.437-6.378c-5.196,1.674-8.052,7.242-6.378,12.437l0.33,1.01
				c1.372,4.154,5.234,6.787,9.383,6.787c1.028,0,2.072-0.162,3.101-0.502C25.126,200.532,27.94,194.942,26.228,189.759z"/>
			<path d="M147.357,20.638c0.029,0,0.06,0,0.089,0c0.24-0.003,0.48-0.004,0.721-0.004c0.06,0.001,0.118,0.001,0.181,0
				c5.445,0,9.866-4.406,9.883-9.855c0.015-5.458-4.396-9.896-9.855-9.913c-0.369,0.002-0.736,0.002-1.104,0.004
				c-5.458,0.048-9.844,4.512-9.797,9.97C137.523,16.271,141.938,20.638,147.357,20.638z"/>
			<path d="M9.923,160.011c5.458-0.021,9.866-4.463,9.846-9.921l-0.002-0.95c0-5.458-4.425-9.884-9.884-9.884S0,143.682,0,149.14
				l0.002,1.025c0.021,5.446,4.442,9.846,9.883,9.846C9.897,160.011,9.911,160.011,9.923,160.011z"/>
			<path d="M298.731,149.14c0-5.458-4.425-9.884-9.884-9.884c-5.458,0-9.884,4.425-9.884,9.884l0.002,1.025
				c0.021,5.446,4.442,9.846,9.883,9.846c0.013,0,0.026,0,0.039,0c5.458-0.021,9.866-4.463,9.846-9.921L298.731,149.14z"/>
			<path d="M266.558,222.739c-4.41-3.213-10.593-2.241-13.808,2.172l-0.56,0.765c-3.231,4.399-2.285,10.585,2.115,13.817
				c1.762,1.294,3.812,1.919,5.843,1.919c3.038,0,6.036-1.397,7.973-4.034l0.608-0.831
				C271.943,232.135,270.971,225.953,266.558,222.739z"/>
			<path d="M252.464,73.431c1.937,2.637,4.935,4.034,7.973,4.034c2.032,0,4.081-0.624,5.843-1.919
				c4.399-3.231,5.346-9.417,2.115-13.817l-0.61-0.827c-3.25-4.385-9.439-5.308-13.825-2.058s-5.308,9.44-2.058,13.825
				L252.464,73.431z"/>
			<path d="M224.328,253.41l-0.746,0.541c-4.427,3.192-5.429,9.369-2.236,13.797c1.931,2.679,4.956,4.104,8.026,4.104
				c2.002,0,4.024-0.607,5.772-1.868l0.85-0.617c4.406-3.221,5.367-9.405,2.147-13.812
				C234.918,251.15,228.733,250.189,224.328,253.41z"/>
			<path d="M283.449,182.739c-5.193-1.688-10.769,1.151-12.455,6.343l-0.297,0.908c-1.707,5.185,1.112,10.772,6.297,12.478
				c1.026,0.338,2.067,0.499,3.092,0.499c4.151,0,8.017-2.637,9.385-6.796l0.32-0.978
				C291.48,190.003,288.64,184.427,283.449,182.739z"/>
			<path d="M188.559,271.749l-0.872,0.281c-5.2,1.659-8.071,7.22-6.413,12.42c1.341,4.201,5.227,6.883,9.414,6.883
				c0.996,0,2.008-0.152,3.007-0.47l1.011-0.327c5.188-1.697,8.018-7.279,6.32-12.466
				C199.328,272.88,193.744,270.05,188.559,271.749z"/>
			<path d="M187.214,26.553l0.875,0.279c1.01,0.326,2.034,0.482,3.04,0.482c4.173,0,8.052-2.664,9.403-6.848
				c1.678-5.194-1.172-10.765-6.366-12.443L193.152,7.7c-5.199-1.634-10.755,1.251-12.396,6.458
				C179.116,19.363,182.007,24.913,187.214,26.553z"/>
			<path d="M148.881,278.1l-0.941-0.001c-0.016,0-0.032,0-0.048,0c-5.436,0-9.857,4.395-9.883,9.836
				c-0.026,5.459,4.378,9.905,9.836,9.931l1.036,0.001c5.458,0,9.884-4.425,9.884-9.884
				C158.765,282.524,154.339,278.1,148.881,278.1z"/>
			<path d="M223.201,44.51l0.733,0.526c1.754,1.272,3.784,1.885,5.797,1.885c3.058,0,6.074-1.416,8.007-4.08
				c3.205-4.418,2.223-10.598-2.195-13.804l-0.874-0.628c-4.449-3.167-10.619-2.128-13.785,2.316
				C217.717,35.172,218.755,41.344,223.201,44.51z"/>
			<path d="M93.729,53.538c0-23.639-19.231-42.87-42.87-42.87s-42.87,19.231-42.87,42.87s19.231,42.87,42.87,42.87
				C74.498,96.408,93.729,77.176,93.729,53.538z M61.731,61.445H39.987c-4.367,0-7.907-3.54-7.907-7.907s3.54-7.907,7.907-7.907
				h21.744c4.367,0,7.907,3.54,7.907,7.907S66.097,61.445,61.731,61.445z"/>
		</g>
	</g>
</g>
<g>
</g>
<g>
</g>
<g>
</g>
<g>
</g>
<g>
</g>
<g>
</g>
<g>
</g>
<g>
</g>
<g>
</g>
<g>
</g>
<g>
</g>
<g>
</g>
<g>
</g>
<g>
</g>
<g>
</g>
</svg>
