<?xml version="1.0" encoding="iso-8859-1"?>
<!-- Generator: Adobe Illustrator 19.0.0, SVG Export Plug-In . SVG Version: 6.00 Build 0)  -->
<svg version="1.1" id="Layer_1" xmlns="http://www.w3.org/2000/svg" xmlns:xlink="http://www.w3.org/1999/xlink" x="0px" y="0px"
	 viewBox="0 0 512 512" style="enable-background:new 0 0 512 512;" xml:space="preserve">
<g>
	<circle style="fill:#FFF082;" cx="347.119" cy="190.915" r="60.746"/>
	<path style="fill:#FFF082;" d="M347.119,104.136c-4.797,0-8.678-3.886-8.678-8.678V34.712c0-4.792,3.881-8.678,8.678-8.678
		c4.797,0,8.678,3.886,8.678,8.678v60.746C355.797,100.25,351.915,104.136,347.119,104.136z"/>
	<path style="fill:#FFF082;" d="M503.322,199.593h-60.746c-4.797,0-8.678-3.886-8.678-8.678s3.881-8.678,8.678-8.678h60.746
		c4.797,0,8.678,3.886,8.678,8.678S508.119,199.593,503.322,199.593z"/>
</g>
<g>
	<path style="fill:#FFF8C1;" d="M394.839,116.924c-1.474,0-2.966-0.373-4.33-1.161c-4.152-2.398-5.577-7.704-3.178-11.856
		l21.695-37.577c2.398-4.152,7.711-5.572,11.856-3.178c4.152,2.398,5.577,7.704,3.178,11.856l-21.695,37.577
		C400.754,115.369,397.839,116.924,394.839,116.924z"/>
	<path style="fill:#FFF8C1;" d="M429.797,151.864c-3,0-5.915-1.556-7.526-4.339c-2.398-4.152-0.974-9.458,3.178-11.856
		l37.577-21.695c4.136-2.398,9.449-0.978,11.856,3.178c2.398,4.152,0.974,9.458-3.178,11.856l-37.577,21.695
		C432.762,151.491,431.271,151.864,429.797,151.864z"/>
	<circle style="fill:#FFF8C1;" cx="347.119" cy="190.915" r="34.712"/>
	<path style="fill:#FFF8C1;" d="M299.398,116.924c-3,0-5.915-1.556-7.526-4.339l-21.695-37.577
		c-2.398-4.152-0.974-9.458,3.178-11.856c4.136-2.394,9.449-0.974,11.856,3.178l21.695,37.577c2.398,4.152,0.974,9.458-3.178,11.856
		C302.364,116.55,300.873,116.924,299.398,116.924z"/>
	<path style="fill:#FFF8C1;" d="M467.356,269.017c-1.474,0-2.966-0.373-4.33-1.161l-37.577-21.695
		c-4.152-2.398-5.577-7.704-3.178-11.856c2.398-4.157,7.704-5.581,11.856-3.178l37.577,21.695c4.152,2.398,5.577,7.704,3.178,11.856
		C473.271,267.461,470.357,269.017,467.356,269.017z"/>
	<path style="fill:#FFF8C1;" d="M264.44,151.864c-1.474,0-2.966-0.373-4.33-1.161l-37.577-21.695
		c-4.152-2.398-5.577-7.704-3.178-11.856c2.398-4.157,7.711-5.577,11.856-3.178l37.577,21.695c4.152,2.398,5.577,7.704,3.178,11.856
		C270.357,150.309,267.441,151.864,264.44,151.864z"/>
	<path style="fill:#FFF8C1;" d="M416.551,319.839c-3,0-5.915-1.556-7.526-4.339l-21.695-37.577
		c-2.398-4.152-0.974-9.458,3.178-11.856c4.136-2.394,9.449-0.974,11.856,3.178l21.695,37.577c2.398,4.152,0.974,9.458-3.178,11.856
		C419.517,319.466,418.025,319.839,416.551,319.839z"/>
</g>
<path style="fill:#E9FAFF;" d="M256.798,286.373c17.694-10.617,29.575-29.93,29.575-52.068c0-33.549-27.197-60.746-60.746-60.746
	c-3.612,0-7.131,0.374-10.57,0.978l0.004-0.026c-3.571,0.643-7.297-0.89-9.269-3.934c-12.367-19.088-33.83-31.73-58.267-31.73
	c-28.808,0-53.453,17.571-63.948,42.565c-1.846,4.399-6.793,6.844-11.18,4.971c-9.794-4.178-21.12-5.451-32.934-2.653
	c-19.088,4.52-34.303,20.185-38.298,39.39c-6.999,33.642,18.494,63.252,50.903,63.252H256.798z"/>
<g>
	<path style="fill:#D4F5FF;" d="M53.233,240.476c3.995-19.204,19.21-34.87,38.298-39.39c11.815-2.798,23.14-1.525,32.934,2.653
		c4.388,1.872,9.334-0.573,11.18-4.971c9.776-23.283,31.887-39.927,58.147-42.124c-12.279-11.027-28.458-17.796-46.267-17.796
		c-28.808,0-53.453,17.571-63.948,42.565c-1.846,4.399-6.793,6.844-11.18,4.971c-9.794-4.178-21.12-5.451-32.934-2.653
		c-19.088,4.52-34.303,20.185-38.298,39.39c-6.999,33.642,18.494,63.252,50.903,63.252h13.355
		C54.891,274.635,49.559,258.136,53.233,240.476z"/>
	<path style="fill:#D4F5FF;" d="M426.009,312.938c-10.677-1.2-20.943-0.32-30.587,2.14c-4.396,1.122-8.964-1.401-10.198-5.769
		c-16.466-58.297-69.996-101.039-133.564-101.039c-50.481,0-94.67,26.941-118.974,67.228c-1.933,3.203-5.582,4.799-9.255,4.088
		c-17.22-3.332-35.84-2.664-55.572,5.248c-39.28,15.75-67.188,53.021-67.848,95.335c-0.907,58.273,46.058,105.795,104.123,105.795
		h309.343c38.153,0,73.398-23.429,85.406-59.644C516.774,372.374,478.171,318.797,426.009,312.938z"/>
</g>
<path style="fill:#BAEFFF;" d="M86.793,397.527c0.658-42.315,28.568-79.585,67.848-95.336c19.73-7.912,38.35-8.58,55.572-5.248
	c3.673,0.711,7.322-0.885,9.255-4.088c21.413-35.495,58.27-60.604,101.258-66.081c-20.347-11.716-43.891-18.502-69.064-18.502
	c-50.482,0-94.67,26.94-118.974,67.228c-1.932,3.203-5.582,4.799-9.255,4.088c-17.22-3.332-35.841-2.665-55.572,5.248
	c-39.28,15.752-67.188,53.02-67.848,95.335c-0.907,58.273,46.058,105.795,104.123,105.795h29.304
	C104.911,467.032,86.218,434.465,86.793,397.527z"/>
<g>
	<path style="fill:#00C3F0;" d="M234.305,433.898c-33.492,0-60.746-27.25-60.746-60.746v-43.39
		c0-33.496,27.254-60.746,60.746-60.746s60.746,27.25,60.746,60.746v43.39C295.051,406.648,267.797,433.898,234.305,433.898z
		 M234.305,286.373c-23.924,0-43.39,19.466-43.39,43.39v43.39c0,23.924,19.466,43.39,43.39,43.39s43.39-19.466,43.39-43.39v-43.39
		C277.695,305.839,258.229,286.373,234.305,286.373z"/>
	<path style="fill:#00C3F0;" d="M347.119,442.576h-34.712c-4.797,0-8.678-3.886-8.678-8.678v-4.339
		c0-5.441,2.601-10.632,6.958-13.89l24.289-18.216c2.169-1.631,3.466-4.228,3.466-6.945c0-4.784-3.89-8.678-8.678-8.678
		c-4.788,0-8.678,3.894-8.678,8.678c0,4.792-3.881,8.678-8.678,8.678s-8.678-3.886-8.678-8.678
		c0-14.356,11.678-26.034,26.034-26.034s26.034,11.678,26.034,26.034c0,8.144-3.89,15.928-10.407,20.822l-18.517,13.89h20.246
		c4.797,0,8.678,3.886,8.678,8.678S351.915,442.576,347.119,442.576z"/>
</g>
<g>
</g>
<g>
</g>
<g>
</g>
<g>
</g>
<g>
</g>
<g>
</g>
<g>
</g>
<g>
</g>
<g>
</g>
<g>
</g>
<g>
</g>
<g>
</g>
<g>
</g>
<g>
</g>
<g>
</g>
</svg>
