<?xml version="1.0" ?><svg viewBox="0 0 512 512" xmlns="http://www.w3.org/2000/svg"><g id="PM2.5"><path d="M119.5244,199.0545h-29.27a10,10,0,0,0-10,10v83.5547a10,10,0,0,0,20,0V260.491h19.2705a30.7183,30.7183,0,1,0,0-61.4365Zm0,41.4365h-19.27V219.0545h19.2705a10.7183,10.7183,0,1,1,0,21.4365Z"/><path d="M244.7764,209.0545a10,10,0,0,0-18.1358-5.8144l-21.8769,30.6083L182.8867,203.24a10,10,0,0,0-18.1357,5.8144v83.9824a10,10,0,0,0,20,0V240.243L196.6279,256.86a10,10,0,0,0,16.2715,0l11.877-16.6172v52.7939a10,10,0,0,0,20,0Z"/><path d="M330.96,232.0613a33.044,33.044,0,0,0-33.0069-33.0068h-2.7373a33.0444,33.0444,0,0,0-33.0073,33.0068v2.93a10,10,0,1,0,20,0v-2.93a13.0219,13.0219,0,0,1,13.0073-13.0068h2.7373a13.0072,13.0072,0,0,1,9.5489,21.8389q-.21.2256-.4053.4658L269.4619,287.452a10,10,0,0,0,7.7461,16.3242H320.96a10,10,0,0,0,0-20H298.2827L322.41,254.2254A32.908,32.908,0,0,0,330.96,232.0613Z"/><circle cx="349.6192" cy="294.3762" r="9.4267"/><path d="M398.5928,237.1844H387.82v-18.13h25.2378a10,10,0,0,0,0-20H377.82a10,10,0,0,0-10,10v38.13a10,10,0,0,0,10,10h20.7725a13.1533,13.1533,0,0,1,0,26.3066H377.82a10,10,0,0,0,0,20h20.7725a33.1533,33.1533,0,1,0,0-66.3066Z"/><circle cx="256" cy="155.4055" r="12.7236" transform="translate(61.5942 383.2065) rotate(-80.7825)"/><circle cx="352.5997" cy="155.4055" r="12.7236" transform="translate(-32.6311 146.7633) rotate(-22.4999)"/><circle cx="159.4004" cy="155.4055" r="12.7236"/><circle cx="207.7002" cy="114.7581" r="12.7236"/><circle cx="304.2998" cy="114.7581" r="12.7236" transform="translate(-20.7526 125.1857) rotate(-22.4999)"/><circle cx="256" cy="356.5944" r="12.7235" transform="translate(-171.4173 456.6447) rotate(-67.5)"/><circle cx="159.4004" cy="356.5944" r="12.7235"/><circle cx="352.5997" cy="356.5944" r="12.7236" transform="matrix(0.9871, -0.1602, 0.1602, 0.9871, -52.5671, 61.0847)"/><circle cx="304.2998" cy="397.2418" r="12.7235" transform="translate(-27.3946 22.571) rotate(-4.0651)"/><circle cx="207.7002" cy="397.2418" r="12.7236"/></g></svg>